<?xml version="1.0" encoding="UTF-8"?>
<svg version="1.1" xmlns="http://www.w3.org/2000/svg" width="512" height="512">
<path d="M0 0 C168.96 0 337.92 0 512 0 C512 168.96 512 337.92 512 512 C343.04 512 174.08 512 0 512 C0 343.04 0 174.08 0 0 Z " fill="#FEFEFE" transform="translate(0,0)"/>
<path d="M0 0 C1.13308594 0.02191406 2.26617187 0.04382813 3.43359375 0.06640625 C4.56925781 0.06511719 5.70492188 0.06382812 6.875 0.0625 C9.87109375 0.62890625 9.87109375 0.62890625 11.53411961 2.29425049 C13.21800976 5.23469917 13.25096998 7.16792894 13.2587738 10.54980469 C13.26867844 11.76116089 13.27858307 12.97251709 13.28878784 14.22058105 C13.28454989 15.55981547 13.27999204 16.8990489 13.27514648 18.23828125 C13.28084977 19.65108785 13.28781387 21.06388985 13.29594421 22.47668457 C13.31389428 26.31137112 13.31270399 30.14582909 13.30700183 33.98054504 C13.30391304 37.1814883 13.30999887 40.38238745 13.31604058 43.58332443 C13.33008986 51.13371189 13.32852081 58.68398621 13.31713867 66.234375 C13.30565293 74.02570733 13.31973967 81.81669563 13.34653515 89.60798264 C13.36867852 96.29684246 13.37533275 102.98559418 13.36945873 109.67448807 C13.36608515 113.66975391 13.36853081 117.66479913 13.38570976 121.66003418 C13.40115564 125.41614682 13.39725022 129.17174889 13.37840462 132.92784119 C13.37471231 134.30651246 13.37784595 135.68522137 13.38829041 137.06385803 C13.40145561 138.94520278 13.38757236 140.826679 13.37229919 142.70800781 C13.37208991 143.76103088 13.37188063 144.81405396 13.371665 145.89898682 C12.74280351 149.32855096 11.59122368 150.51244044 8.87109375 152.62890625 C6.21484375 153.125 6.21484375 153.125 3.37109375 153.06640625 C1.9634375 153.06447266 1.9634375 153.06447266 0.52734375 153.0625 C-2.53039335 152.56336939 -3.91366453 151.76862837 -6.12890625 149.62890625 C-7.17863832 146.47971005 -7.26236463 144.25559848 -7.27607727 140.94888306 C-7.28323257 139.76558914 -7.29038788 138.58229523 -7.29776001 137.36314392 C-7.30044891 136.06333084 -7.30313782 134.76351776 -7.3059082 133.42431641 C-7.31217403 132.04283986 -7.31882094 130.66136499 -7.32582092 129.27989197 C-7.3468454 124.74259613 -7.35722016 120.20530001 -7.3671875 115.66796875 C-7.37123533 114.10574704 -7.37535226 112.54352551 -7.37953758 110.98130417 C-7.39858384 103.64342531 -7.41281739 96.3055565 -7.42114955 88.96765769 C-7.43092746 80.4965041 -7.45726359 72.02561144 -7.49765044 63.55454981 C-7.52779761 57.00669241 -7.54261699 50.45890987 -7.54593056 43.9109844 C-7.54828221 40.00003377 -7.55725751 36.08936207 -7.58239174 32.17848587 C-7.60565399 28.49957709 -7.60991348 24.82113128 -7.59963036 21.14216805 C-7.59889816 19.14998033 -7.61800131 17.15781621 -7.63769531 15.16572571 C-7.6307515 13.97679214 -7.62380768 12.78785858 -7.61665344 11.56289673 C-7.6190418 10.53161966 -7.62143015 9.5003426 -7.62389088 8.43781471 C-6.79052388 3.7086747 -4.7359348 0.95191698 0 0 Z " fill="#8D54FF" transform="translate(389.12890625,177.37109375)"/>
<path d="M0 0 C3.0692598 0.42214738 5.04337535 1.34371299 7.4140625 3.33203125 C8.73904841 5.98200307 8.542998 7.97449384 8.54777527 10.94322205 C8.55204025 12.13644577 8.55630524 13.32966949 8.56069946 14.55905151 C8.56024628 15.8749527 8.55979309 17.19085388 8.55932617 18.54663086 C8.56231705 19.94105622 8.56571941 21.33548074 8.56950378 22.72990417 C8.57835501 26.52325904 8.58068236 30.31659136 8.58131957 34.10995555 C8.5822678 37.27359843 8.58594509 40.43723602 8.58949167 43.60087687 C8.5976404 51.0629408 8.60007551 58.52499267 8.59936523 65.98706055 C8.59876424 73.69192882 8.60931935 81.39672713 8.6251089 89.1015777 C8.63817142 95.71053076 8.64354968 102.31946092 8.64290982 108.9284268 C8.64265447 112.87835972 8.64552637 116.82823047 8.65608788 120.77815056 C8.66574731 124.49223625 8.66586295 128.20620008 8.65857124 131.92028999 C8.65702187 133.93669344 8.66538706 135.95309682 8.67401123 137.96948242 C8.66981674 139.16552597 8.66562225 140.36156952 8.66130066 141.59385681 C8.66184543 142.63565063 8.66239019 143.67744444 8.66295147 144.75080776 C8.4140625 147.33203125 8.4140625 147.33203125 6.4140625 150.33203125 C3.46342102 150.55288765 0.73038019 150.61264114 -2.2109375 150.51953125 C-3.01273438 150.50599609 -3.81453125 150.49246094 -4.640625 150.47851562 C-6.62268128 150.44312176 -8.60439301 150.38931359 -10.5859375 150.33203125 C-11.91814366 147.66761894 -11.72101619 145.63651425 -11.73310852 142.65164185 C-11.74026382 141.44303497 -11.74741913 140.2344281 -11.75479126 138.98919678 C-11.75763162 137.64270045 -11.76034334 136.29620385 -11.76293945 134.94970703 C-11.76920318 133.53719922 -11.7758499 132.12469306 -11.78285217 130.71218872 C-11.80026839 126.86919167 -11.81081527 123.02620707 -11.8190577 119.18318033 C-11.82420578 116.78339197 -11.83028154 114.38360749 -11.83656883 111.98382187 C-11.8556213 104.47881962 -11.8698532 96.97382722 -11.8781808 89.46880543 C-11.88795922 80.79897272 -11.91429407 72.12939492 -11.95468169 63.45965207 C-11.98481276 56.76236251 -11.99964674 50.06514615 -12.00296181 43.3677901 C-12.00531545 39.36575639 -12.01431636 35.36399499 -12.03942299 31.36203384 C-12.0626569 27.59778377 -12.06695618 23.83398619 -12.05666161 20.06968307 C-12.05616501 18.68777209 -12.06252198 17.30583918 -12.07621765 15.92399597 C-12.09386304 14.03820899 -12.08446909 12.15222664 -12.07368469 10.26638794 C-12.07607305 9.21076723 -12.0784614 8.15514652 -12.08092213 7.06753731 C-10.82784418 0.14246907 -5.99773345 -0.23884779 0 0 Z " fill="#80D959" transform="translate(121.5859375,179.66796875)"/>
<path d="M0 0 C1.03125 -0.02191406 2.0625 -0.04382813 3.125 -0.06640625 C6 0.5625 6 0.5625 8.14932251 2.43345642 C10.85368625 7.00587492 10.54373318 11.03457609 10.48583984 16.25610352 C10.48963654 17.33305481 10.49343323 18.4100061 10.49734497 19.51959229 C10.5047506 23.07716044 10.48336807 26.63391076 10.4609375 30.19140625 C10.45855316 32.66332402 10.45764773 35.13524361 10.4581604 37.60716248 C10.45503243 42.78631951 10.43846582 47.96519971 10.41162109 53.14428711 C10.3776238 59.7880094 10.36999304 66.4314277 10.37151146 73.07522678 C10.37096803 78.17867442 10.36000553 83.2820554 10.34550858 88.38548088 C10.33913799 90.835535 10.33520107 93.28559669 10.33372116 95.73565865 C10.32939203 99.15666742 10.3118994 102.57735178 10.29052734 105.99829102 C10.29143372 107.01398666 10.29234009 108.02968231 10.29327393 109.07615662 C10.28047897 110.47452255 10.28047897 110.47452255 10.26742554 111.90113831 C10.26407385 112.70950921 10.26072216 113.51788012 10.25726891 114.35074711 C9.9645591 116.86718709 9.3612679 118.43050545 8 120.5625 C4.69613642 122.76507572 3.43182123 122.88499903 -0.4375 122.9375 C-1.38496094 122.96585937 -2.33242188 122.99421875 -3.30859375 123.0234375 C-6 122.5625 -6 122.5625 -8.13586426 121.2121582 C-11.1026479 116.99521067 -10.55657302 112.74130086 -10.51757812 107.70703125 C-10.5245874 106.60096527 -10.53159668 105.49489929 -10.53881836 104.35531616 C-10.55644017 100.69495627 -10.54476001 97.03536792 -10.53125 93.375 C-10.53394369 90.83438976 -10.53782508 88.29378053 -10.54284668 85.75317383 C-10.54874745 80.42681112 -10.54054079 75.10072558 -10.52148438 69.77441406 C-10.49971566 63.61897781 -10.50676719 57.46407152 -10.52879 51.30864811 C-10.54913745 45.38405511 -10.54697329 39.45962662 -10.53526306 33.53500366 C-10.5325914 31.01516648 -10.5358809 28.49531582 -10.54518127 25.97549438 C-10.55532014 22.45595274 -10.53988141 18.93743405 -10.51757812 15.41796875 C-10.52567505 14.37264984 -10.53377197 13.32733093 -10.54211426 12.25033569 C-10.4593961 5.21788937 -10.4593961 5.21788937 -8.14733887 1.91943359 C-5.31352808 0.12870875 -3.33905958 -0.00417382 0 0 Z " fill="#8D54FF" transform="translate(420,192.4375)"/>
<path d="M0 0 C0.9178125 -0.01546875 1.835625 -0.0309375 2.78125 -0.046875 C6.61029334 1.07543081 8.5805104 3.37056162 10.5 6.75 C11.19288212 9.77691521 11.16464149 12.70214047 11.11523438 15.79711914 C11.12078339 16.68729233 11.1263324 17.57746552 11.13204956 18.49461365 C11.14382212 21.42534896 11.11959684 24.35453002 11.09375 27.28515625 C11.09203833 29.3272647 11.09210515 31.36937536 11.09387207 33.41148376 C11.09222024 37.68607677 11.07354547 41.96014445 11.04199219 46.23461914 C11.00229014 51.71136445 10.99795077 57.18742277 11.00545502 62.66428471 C11.00852547 66.87908716 10.99640185 71.0937354 10.97932434 75.30850029 C10.97229812 77.32789581 10.96916935 79.34730881 10.97001648 81.36671638 C10.96821722 84.1888904 10.94682503 87.01024348 10.91992188 89.83227539 C10.92285248 90.66514069 10.92578308 91.49800598 10.92880249 92.35610962 C10.86109687 96.96318605 10.48504014 100.00619283 7.5 103.75 C3.57232406 105.71383797 -1.21773499 105.22510337 -5.5 104.75 C-8.15563802 102.8531157 -9.07242527 101.60514945 -10.5 98.75 C-10.61946551 95.88344365 -10.67839135 93.04045696 -10.69287109 90.17285156 C-10.70104858 89.28486877 -10.70922607 88.39688599 -10.71765137 87.48199463 C-10.74252195 84.53487832 -10.75902626 81.58781026 -10.7734375 78.640625 C-10.77876118 77.63495232 -10.78408485 76.62927963 -10.78956985 75.59313202 C-10.81630956 70.26945253 -10.83568123 64.94579655 -10.85009766 59.62207031 C-10.86674119 54.12280316 -10.91151439 48.6241358 -10.9624691 43.12509537 C-10.99612595 38.89743359 -11.00767344 34.66991438 -11.01332474 30.44213104 C-11.02004226 28.41513235 -11.03527728 26.38814319 -11.05921555 24.36127472 C-11.09083419 21.52192856 -11.0909087 18.68420256 -11.08349609 15.84472656 C-11.09990143 15.00917236 -11.11630676 14.17361816 -11.13320923 13.31274414 C-11.089052 9.17511577 -10.74935114 6.53024961 -8.13345337 3.23138428 C-5.16389546 0.43330386 -4.01589767 -0.06768367 0 0 Z " fill="#CD71E7" transform="translate(227.5,203.25)"/>
<path d="M0 0 C1.03125 -0.00128906 2.0625 -0.00257813 3.125 -0.00390625 C6.81886399 0.72382511 7.77642067 1.52229332 10 4.5625 C10.5978234 7.59115087 10.54636235 10.57906777 10.51757812 13.65795898 C10.5245874 14.57710083 10.53159668 15.49624268 10.53881836 16.4432373 C10.55642527 19.48199668 10.54476491 22.51982487 10.53125 25.55859375 C10.53394437 27.67082396 10.53782632 29.78305297 10.54284668 31.89527893 C10.54874559 36.32296554 10.54016681 40.75032941 10.52148438 45.17797852 C10.49870879 50.85214945 10.51180694 56.52556302 10.53577423 62.19970608 C10.55023337 66.56205442 10.54562539 70.92422346 10.53526306 75.28657722 C10.53259538 77.37855176 10.53586696 79.47054259 10.54518127 81.56249809 C10.55534698 84.4879856 10.53984444 87.41225 10.51757812 90.33764648 C10.52567505 91.20170609 10.53377197 92.06576569 10.54211426 92.95600891 C10.48512145 97.00051344 10.29653054 99.07958085 8.13366699 102.60194397 C5.44458051 105.0728566 4.10777979 105.1814378 0.5 105.0625 C-0.4384375 105.0521875 -1.376875 105.041875 -2.34375 105.03125 C-5.38172677 104.49513645 -6.7909538 103.69121725 -9 101.5625 C-10.31143022 97.62820935 -10.16403968 93.86642835 -10.17700195 89.76416016 C-10.18357315 88.86467148 -10.19014435 87.9651828 -10.19691467 87.03843689 C-10.21663857 84.05947793 -10.22830699 81.08056931 -10.23828125 78.1015625 C-10.24235678 77.08452618 -10.2464323 76.06748985 -10.25063133 75.01963425 C-10.27148613 69.6387426 -10.28579158 64.25787644 -10.29516602 58.87695312 C-10.30624168 53.31605646 -10.34065674 47.7555587 -10.38033772 42.19480324 C-10.40646139 37.92086027 -10.41485398 33.64701308 -10.41844749 29.37299728 C-10.42332282 27.32286249 -10.43496361 25.27273224 -10.45348549 23.22267532 C-10.47779099 20.35466951 -10.47692782 17.48770582 -10.4699707 14.61962891 C-10.48278076 13.77269974 -10.49559082 12.92577057 -10.50878906 12.05317688 C-10.47340052 8.05221893 -10.28390575 6.02707389 -8.15031433 2.53573608 C-5.34137853 -0.04188404 -3.7693309 -0.08009828 0 0 Z " fill="#8C53FF" transform="translate(474,201.4375)"/>
<path d="M0 0 C0.825 -0.00128906 1.65 -0.00257813 2.5 -0.00390625 C6.01682309 0.79287398 7.51690213 1.92324765 10 4.5625 C10.74865917 7.58745348 10.67299728 10.55473489 10.63110352 13.65795898 C10.63825882 14.57710083 10.64541412 15.49624268 10.65278625 16.4432373 C10.66969759 19.48219478 10.65025466 22.51968198 10.62890625 25.55859375 C10.62973479 27.67082339 10.63219362 29.78305296 10.63621521 31.89527893 C10.63907498 36.32304279 10.62435542 40.75030132 10.59692383 45.17797852 C10.56286197 50.85217499 10.56885084 56.52546646 10.5875864 62.19970608 C10.59815876 66.56207309 10.58921599 70.92422977 10.57420158 75.28657722 C10.56901967 77.37854449 10.56950168 79.47053373 10.57574654 81.56249809 C10.58120063 84.48802724 10.56081614 87.41226454 10.53344727 90.33764648 C10.53997314 91.20170609 10.54649902 92.06576569 10.55322266 92.95600891 C10.48913059 96.98774712 10.29099232 99.08479219 8.14854431 102.60194397 C5.32054523 105.18250544 3.71885873 105.17495677 -0.0625 105.0625 C-1.10535156 105.0521875 -2.14820313 105.041875 -3.22265625 105.03125 C-6.28834042 104.51383495 -7.21019614 104.05062077 -9 101.5625 C-10.31094411 97.62966767 -10.17234068 93.8653654 -10.19287109 89.76416016 C-10.20104858 88.86467148 -10.20922607 87.9651828 -10.21765137 87.03843689 C-10.24248059 84.05948553 -10.25901313 81.08058167 -10.2734375 78.1015625 C-10.27876118 77.08452618 -10.28408485 76.06748985 -10.28956985 75.01963425 C-10.31628788 69.63874821 -10.33566901 64.25788528 -10.35009766 58.87695312 C-10.36676223 53.31596505 -10.4115592 47.75556766 -10.4624691 42.19480324 C-10.49609554 37.92086086 -10.5076699 33.64705969 -10.51332474 29.37299728 C-10.52004755 27.32284392 -10.53529623 25.27270017 -10.55921555 23.22267532 C-10.59077745 20.35449996 -10.59091761 17.48793179 -10.58349609 14.61962891 C-10.59990143 13.77269974 -10.61630676 12.92577057 -10.63320923 12.05317688 C-10.58721885 7.71284837 -10.39524396 6.06510518 -7.61978149 2.53573608 C-4.76316077 0.38411119 -3.52441107 -0.09361717 0 0 Z " fill="#7ED957" transform="translate(65,203.4375)"/>
<path d="M0 0 C0.92683594 -0.03351563 1.85367187 -0.06703125 2.80859375 -0.1015625 C6.04553169 0.75243815 7.44986986 2.16207692 9.50509644 4.7586956 C11.47282142 8.2317062 11.24005399 11.76827074 11.17773438 15.67211914 C11.18328339 16.56229233 11.1888324 17.45246552 11.19454956 18.36961365 C11.20632212 21.30034896 11.18209684 24.22953002 11.15625 27.16015625 C11.15453833 29.2022647 11.15460515 31.24437536 11.15637207 33.28648376 C11.15472024 37.56107677 11.13604547 41.83514445 11.10449219 46.10961914 C11.06479014 51.58636445 11.06045077 57.06242277 11.06795502 62.53928471 C11.07102547 66.75408716 11.05890185 70.9687354 11.04182434 75.18350029 C11.03479812 77.20289581 11.03166935 79.22230881 11.03251648 81.24171638 C11.03071722 84.0638904 11.00932503 86.88524348 10.98242188 89.70727539 C10.98535248 90.54014069 10.98828308 91.37300598 10.99130249 92.23110962 C10.92359687 96.83818605 10.54754014 99.88119283 7.5625 103.625 C5.00433084 104.90408458 3.04402006 104.86474681 0.1875 104.9375 C-1.24722656 104.99357422 -1.24722656 104.99357422 -2.7109375 105.05078125 C-6.36453141 104.48023435 -7.25479366 103.61264459 -9.4375 100.625 C-10.03706078 97.56088342 -9.98382849 94.53592532 -9.95507812 91.421875 C-9.9620874 90.49137329 -9.96909668 89.56087158 -9.97631836 88.60217285 C-9.99392461 85.52614507 -9.98226606 82.45103715 -9.96875 79.375 C-9.97144415 77.23795393 -9.97532593 75.10090906 -9.98034668 72.96386719 C-9.9862453 68.48490733 -9.97766683 64.00626653 -9.95898438 59.52734375 C-9.93619487 53.78357548 -9.94931597 48.0405548 -9.97327423 42.29681396 C-9.98772221 37.88389443 -9.98313076 33.4711524 -9.97276306 29.05822754 C-9.97009302 26.94030672 -9.97337524 24.82236983 -9.98268127 22.70446777 C-9.99283018 19.74525205 -9.9773686 16.78725021 -9.95507812 13.828125 C-9.96317505 12.95111938 -9.97127197 12.07411377 -9.97961426 11.17053223 C-9.89689744 5.24889456 -9.89689744 5.24889456 -7.56896973 2.08740234 C-4.90064854 0.25666597 -3.22300206 0.0268211 0 0 Z " fill="#CC6EE6" transform="translate(336.4375,203.375)"/>
<path d="M0 0 C1.546875 0.03287109 1.546875 0.03287109 3.125 0.06640625 C4.15625 0.06511719 5.1875 0.06382812 6.25 0.0625 C9.86525308 0.77474415 10.87449915 1.73885805 13.125 4.62890625 C13.63293457 7.66455078 13.63293457 7.66455078 13.64257812 11.26171875 C13.6495874 11.91912048 13.65659668 12.57652222 13.66381836 13.25384521 C13.68138431 15.42096542 13.66978235 17.58677341 13.65625 19.75390625 C13.65894536 21.26318614 13.66282815 22.77246433 13.66784668 24.28173828 C13.67373976 27.44255124 13.6651855 30.60291159 13.64648438 33.76367188 C13.62369419 37.81259182 13.6368184 41.86045123 13.66077423 45.90933228 C13.67523778 49.02522758 13.67062383 52.14087199 13.66026306 55.2567749 C13.65759728 56.74949265 13.66086038 58.24223329 13.67018127 59.73492432 C13.68035695 61.82259329 13.66483569 63.90855199 13.64257812 65.99609375 C13.63780457 67.77669189 13.63780457 67.77669189 13.63293457 69.59326172 C13.02217241 73.24345 12.04672647 74.42353509 9.125 76.62890625 C6.25 77.1953125 6.25 77.1953125 3.125 77.19140625 C2.09375 77.21332031 1.0625 77.23523438 0 77.2578125 C-3.89780038 76.40516867 -4.73606405 74.94223459 -6.875 71.62890625 C-7.38293457 68.55566406 -7.38293457 68.55566406 -7.39257812 65.08203125 C-7.40518677 63.77717773 -7.41779541 62.47232422 -7.43078613 61.12792969 C-7.4236261 59.71158303 -7.41542206 58.29524131 -7.40625 56.87890625 C-7.40894656 55.41829164 -7.41283035 53.95767879 -7.41784668 52.49707031 C-7.42373413 49.44058081 -7.41520381 46.38455989 -7.39648438 43.328125 C-7.3736944 39.41720276 -7.38682165 35.50737857 -7.41077423 31.59649658 C-7.42525311 28.58178487 -7.42061684 25.56733197 -7.41026306 22.5526123 C-7.40760151 21.11096058 -7.41084544 19.66928509 -7.42018127 18.22766113 C-7.43037923 16.21037263 -7.41207028 14.19300135 -7.39257812 12.17578125 C-7.38939575 11.02948242 -7.38621338 9.88318359 -7.38293457 8.70214844 C-6.61001396 4.0256165 -4.73284764 1.03531042 0 0 Z " fill="#CB6DE6" transform="translate(305.875,217.37109375)"/>
<path d="M0 0 C0.825 -0.00128906 1.65 -0.00257813 2.5 -0.00390625 C5.91682841 0.77021894 7.524403 2.09110336 10 4.5625 C10.62818909 7.59814453 10.62818909 7.59814453 10.63110352 11.1953125 C10.63825882 11.85271423 10.64541412 12.51011597 10.65278625 13.18743896 C10.66965933 15.35483862 10.65028321 17.52016542 10.62890625 19.6875 C10.6297351 21.19677908 10.63219509 22.70605808 10.63621521 24.21533203 C10.63907221 27.37625344 10.62438303 30.53646587 10.59692383 33.69726562 C10.56284 37.74622139 10.56885949 41.79390958 10.5875864 45.84292603 C10.59816203 48.95884744 10.58921371 52.07447459 10.57420158 55.19036865 C10.56902336 56.68307623 10.56949725 58.17581459 10.57574654 59.66851807 C10.58120605 61.75624513 10.56080525 63.84216634 10.53344727 65.9296875 C10.52724869 67.11675293 10.52105011 68.30381836 10.5146637 69.52685547 C9.89639656 73.17358491 8.91975368 74.35759953 6 76.5625 C3.125 77.12890625 3.125 77.12890625 0 77.125 C-1.03125 77.14691406 -2.0625 77.16882813 -3.125 77.19140625 C-7.02272794 76.33877826 -7.86028965 74.87525444 -10 71.5625 C-10.5146637 68.48925781 -10.5146637 68.48925781 -10.53344727 65.015625 C-10.5492836 63.71077148 -10.56511993 62.40591797 -10.58143616 61.06152344 C-10.57759473 59.64517864 -10.57255571 58.22883666 -10.56640625 56.8125 C-10.5716443 55.35188399 -10.57792145 53.89127138 -10.58518982 52.43066406 C-10.59558237 49.37418667 -10.59104911 46.31817518 -10.57641602 43.26171875 C-10.55922107 39.35063196 -10.58273569 35.44101334 -10.61790562 31.53009033 C-10.63989646 28.51536379 -10.63843443 25.50098777 -10.6301403 22.48620605 C-10.62932184 21.04453927 -10.63616529 19.60284648 -10.65091133 18.16125488 C-10.6683849 16.14402646 -10.65047882 14.12658605 -10.63110352 12.109375 C-10.63014175 10.96307617 -10.62917999 9.81677734 -10.62818909 8.63574219 C-9.47229296 2.98083857 -5.73579321 -0.15235701 0 0 Z " fill="#CB6DE6" transform="translate(200,217.4375)"/>
<path d="M0 0 C0.825 -0.00128906 1.65 -0.00257813 2.5 -0.00390625 C5.91682841 0.77021894 7.524403 2.09110336 10 4.5625 C10.62818909 7.59814453 10.62818909 7.59814453 10.63110352 11.1953125 C10.63825882 11.85271423 10.64541412 12.51011597 10.65278625 13.18743896 C10.66965933 15.35483862 10.65028321 17.52016542 10.62890625 19.6875 C10.6297351 21.19677908 10.63219509 22.70605808 10.63621521 24.21533203 C10.63907221 27.37625344 10.62438303 30.53646587 10.59692383 33.69726562 C10.56284 37.74622139 10.56885949 41.79390958 10.5875864 45.84292603 C10.59816203 48.95884744 10.58921371 52.07447459 10.57420158 55.19036865 C10.56902336 56.68307623 10.56949725 58.17581459 10.57574654 59.66851807 C10.58120605 61.75624513 10.56080525 63.84216634 10.53344727 65.9296875 C10.52724869 67.11675293 10.52105011 68.30381836 10.5146637 69.52685547 C9.896428 73.17339948 8.92431369 74.36239564 6 76.5625 C3.08984375 77.05859375 3.08984375 77.05859375 -0.0625 77 C-1.10535156 76.99871094 -2.14820312 76.99742187 -3.22265625 76.99609375 C-6 76.5625 -6 76.5625 -7.80859375 75.22265625 C-10.29155141 71.76279721 -10.14620294 68.4458383 -10.19287109 64.33447266 C-10.20893402 63.04948883 -10.22499695 61.764505 -10.24154663 60.44058228 C-10.25303265 59.03591575 -10.26364144 57.63124182 -10.2734375 56.2265625 C-10.27876118 55.51843792 -10.28408485 54.81031334 -10.28956985 54.08073044 C-10.31626857 50.33377923 -10.33565532 46.58686099 -10.35009766 42.83984375 C-10.36344565 39.74156222 -10.3913169 36.64393798 -10.43212891 33.54589844 C-10.48145598 29.8011374 -10.50621797 26.05697313 -10.51332474 22.31190109 C-10.52003399 20.88693091 -10.53524796 19.46197388 -10.55921555 18.03718948 C-10.5908768 16.04146651 -10.58790145 14.04528565 -10.58349609 12.04931641 C-10.59158295 10.91475006 -10.5996698 9.78018372 -10.60800171 8.61123657 C-9.48127742 2.96144069 -5.71222416 -0.15173095 0 0 Z " fill="#80D959" transform="translate(92,217.4375)"/>
<path d="M0 0 C1.39025391 -0.03287109 1.39025391 -0.03287109 2.80859375 -0.06640625 C6.66121971 0.81341329 8.06699843 2.54202266 10.5625 5.5625 C11.18395996 8.59777832 11.18395996 8.59777832 11.17773438 12.01757812 C11.18703979 13.30241089 11.19634521 14.58724365 11.20593262 15.91101074 C11.19034528 17.30526839 11.17376019 18.69951518 11.15625 20.09375 C11.15453769 21.53194071 11.15460581 22.97013455 11.15637207 24.4083252 C11.15472113 27.41786694 11.1360667 30.4266617 11.10449219 33.43603516 C11.06481432 37.28631442 11.06044813 41.13561617 11.06795502 44.9860611 C11.07103015 47.95445653 11.0588851 50.92263376 11.04182434 53.89097595 C11.03481204 55.31028372 11.03166766 56.72961621 11.03251648 58.14894104 C11.03071128 60.13517069 11.00701823 62.1213437 10.98242188 64.10742188 C10.97400269 65.23595581 10.9655835 66.36448975 10.95690918 67.52722168 C10.47776649 71.21458874 9.21191651 73.91308349 6.5625 76.5625 C4.63041163 76.74080165 2.68978628 76.83043417 0.75 76.875 C-0.30832031 76.91238281 -1.36664063 76.94976562 -2.45703125 76.98828125 C-6.22065369 76.4506209 -7.13247102 75.54411588 -9.4375 72.5625 C-9.94543457 69.52685547 -9.94543457 69.52685547 -9.95507812 65.9296875 C-9.96559204 64.9435849 -9.96559204 64.9435849 -9.97631836 63.93756104 C-9.99388431 61.77044083 -9.98228235 59.60463284 -9.96875 57.4375 C-9.97144536 55.92822011 -9.97532815 54.41894192 -9.98034668 52.90966797 C-9.98623976 49.74885501 -9.9776855 46.58849466 -9.95898438 43.42773438 C-9.93619419 39.37881443 -9.9493184 35.33095502 -9.97327423 31.28207397 C-9.98773778 28.16617867 -9.98312383 25.05053426 -9.97276306 21.93463135 C-9.97009728 20.4419136 -9.97336038 18.94917296 -9.98268127 17.45648193 C-9.99285695 15.36881296 -9.97733569 13.28285426 -9.95507812 11.1953125 C-9.95189575 10.00824707 -9.94871338 8.82118164 -9.94543457 7.59814453 C-8.97122371 1.77582404 -5.60262209 -0.00777063 0 0 Z " fill="#7ED958" transform="translate(37.4375,217.4375)"/>
<path d="M0 0 C1.03125 -0.02191406 2.0625 -0.04382813 3.125 -0.06640625 C7.02056382 0.78574834 7.86053917 2.25321244 10 5.5625 C10.50120544 8.59777832 10.50120544 8.59777832 10.50170898 12.01757812 C10.51108994 13.30241089 10.52047089 14.58724365 10.53013611 15.91101074 C10.51965745 17.30526396 10.50828838 18.69951073 10.49609375 20.09375 C10.49624883 21.53194247 10.49773934 22.97013537 10.50050354 24.4083252 C10.50188576 27.41775054 10.48936002 30.42669827 10.46655273 33.43603516 C10.43816799 37.28628862 10.44090747 41.13574894 10.45364285 44.9860611 C10.46061035 47.95443451 10.45279864 50.9226258 10.44038582 53.89097595 C10.43588168 55.31029054 10.43552543 56.72962474 10.43945122 58.14894104 C10.4423736 60.13513422 10.42365997 62.12132333 10.40405273 64.10742188 C10.39864975 65.23595581 10.39324677 66.36448975 10.38768005 67.52722168 C9.95329862 70.92814087 9.02953205 72.82339348 7 75.5625 C4.44909127 76.83795437 2.47334154 76.83822804 -0.375 76.9375 C-1.33148438 76.98648438 -2.28796875 77.03546875 -3.2734375 77.0859375 C-6 76.5625 -6 76.5625 -8.13806152 74.44569397 C-10.38234527 70.970442 -10.50636765 69.01920516 -10.51757812 64.90795898 C-10.5245874 64.26016479 -10.53159668 63.61237061 -10.53881836 62.94494629 C-10.55634325 60.81571881 -10.54479853 58.68783338 -10.53125 56.55859375 C-10.53394622 55.07316331 -10.53782972 53.58773459 -10.54284668 52.10231018 C-10.54873391 48.99454893 -10.54020322 45.88724857 -10.52148438 42.77954102 C-10.49867456 38.79902514 -10.51183443 34.8195869 -10.53577423 30.83911037 C-10.55023668 27.77382808 -10.5456247 24.70880085 -10.53526306 21.64351082 C-10.532598 20.17591282 -10.53585783 18.70829155 -10.54518127 17.24072075 C-10.55535745 15.18907284 -10.53983622 13.13916495 -10.51757812 11.08764648 C-10.51439575 9.92136215 -10.51121338 8.75507782 -10.50793457 7.55345154 C-9.46575311 1.41660946 -5.78942572 -0.00723678 0 0 Z " fill="#8C53FF" transform="translate(447,215.4375)"/>
<path d="M0 0 C1.03125 -0.0103125 2.0625 -0.020625 3.125 -0.03125 C6.75494193 0.63950014 7.74356375 1.60939671 10 4.5 C10.5146637 7.49095154 10.5146637 7.49095154 10.53344727 11.02514648 C10.54206284 11.67118835 10.55067841 12.31723022 10.55955505 12.98284912 C10.58220756 15.11267476 10.57547835 17.24118366 10.56640625 19.37109375 C10.5716426 20.85555919 10.57791913 22.34002128 10.58518982 23.82447815 C10.59559287 26.93400744 10.59103502 30.0430791 10.57641602 33.15258789 C10.55923588 37.13207601 10.58271205 41.11011922 10.61790562 45.08944607 C10.63989774 48.15478533 10.63843383 51.21977988 10.6301403 54.28517342 C10.6293216 55.7519597 10.63616973 57.2187715 10.65091133 58.68548393 C10.66839164 60.7397039 10.65379257 62.79134154 10.63110352 64.84545898 C10.62966087 66.59607887 10.62966087 66.59607887 10.62818909 68.38206482 C9.8120327 72.43295137 8.16752504 73.93453706 5 76.5 C2.46484375 77.09375 2.46484375 77.09375 -0.0625 77 C-0.89910156 76.9896875 -1.73570312 76.979375 -2.59765625 76.96875 C-5.46700902 76.40887629 -6.88428483 75.49791365 -9 73.5 C-10.10681279 70.17956162 -10.1471523 67.66273169 -10.17700195 64.16430664 C-10.18983719 62.85607437 -10.20267242 61.5478421 -10.21589661 60.19996643 C-10.22406268 58.77003355 -10.23150666 57.3400964 -10.23828125 55.91015625 C-10.24235678 55.18975096 -10.2464323 54.46934566 -10.25063133 53.72710991 C-10.27146895 49.91646488 -10.28578248 46.10585565 -10.29516602 42.29516602 C-10.30624596 38.35955099 -10.34066981 34.42449895 -10.38033772 30.48908329 C-10.40647108 27.4616134 -10.41485471 24.43427862 -10.41844749 21.40670586 C-10.42331939 19.95581686 -10.43495069 18.50493413 -10.45348549 17.05415535 C-10.47780984 15.02460452 -10.47449874 12.99477943 -10.4699707 10.96508789 C-10.47583694 9.81053604 -10.48170319 8.65598419 -10.48774719 7.46644592 C-9.47689555 1.31851362 -5.77050424 -0.05770504 0 0 Z " fill="#8C52FF" transform="translate(365,215.5)"/>
<path d="M0 0 C0.92941406 0.01289063 1.85882813 0.02578125 2.81640625 0.0390625 C3.74324219 0.02617187 4.67007813 0.01328125 5.625 0 C9.45849408 0.92438864 10.88574183 2.648729 13.37890625 5.6640625 C14.00036621 8.69934082 14.00036621 8.69934082 13.99414062 12.11914062 C14.00344604 13.40397339 14.01275146 14.68880615 14.02233887 16.01257324 C14.00675153 17.40683089 13.99016644 18.80107768 13.97265625 20.1953125 C13.97094394 21.63350321 13.97101206 23.07169705 13.97277832 24.5098877 C13.97112738 27.51942944 13.95247295 30.5282242 13.92089844 33.53759766 C13.88122057 37.38787692 13.87685438 41.23717867 13.88436127 45.0876236 C13.8874364 48.05601903 13.87529135 51.02419626 13.85823059 53.99253845 C13.85121829 55.41184622 13.84807391 56.83117871 13.84892273 58.25050354 C13.84711753 60.23673319 13.82342448 62.2229062 13.79882812 64.20898438 C13.79040894 65.33751831 13.78198975 66.46605225 13.77331543 67.62878418 C13.29417274 71.31615124 12.02832276 74.01464599 9.37890625 76.6640625 C6.796875 76.9375 6.796875 76.9375 3.56640625 77.0390625 C2.50808594 77.08804688 1.44976562 77.13703125 0.359375 77.1875 C-2.62109375 76.6640625 -2.62109375 76.6640625 -4.77502441 74.54052734 C-6.98421342 71.09826524 -7.12738994 69.18097077 -7.13867188 65.1171875 C-7.15128052 63.81233398 -7.16388916 62.50748047 -7.17687988 61.16308594 C-7.16971985 59.74673928 -7.16151581 58.33039756 -7.15234375 56.9140625 C-7.15504031 55.45344789 -7.1589241 53.99283504 -7.16394043 52.53222656 C-7.16982788 49.47573706 -7.16129756 46.41971614 -7.14257812 43.36328125 C-7.11978815 39.45235901 -7.1329154 35.54253482 -7.15686798 31.63165283 C-7.17134686 28.61694112 -7.16671059 25.60248822 -7.15635681 22.58776855 C-7.15369526 21.14611683 -7.15693919 19.70444134 -7.16627502 18.26281738 C-7.17647298 16.24552888 -7.15816403 14.2281576 -7.13867188 12.2109375 C-7.1354895 11.06463867 -7.13230713 9.91833984 -7.12902832 8.73730469 C-6.38576665 4.24022324 -4.54078392 1.15042215 0 0 Z " fill="#7ED957" transform="translate(143.62109375,217.3359375)"/>
<path d="M0 0 C1.546875 0.03287109 1.546875 0.03287109 3.125 0.06640625 C4.15625 0.06511719 5.1875 0.06382812 6.25 0.0625 C9.90993456 0.78354689 10.88956574 1.65322886 13.125 4.62890625 C13.535128 7.4577571 13.71007897 9.89094117 13.69140625 12.71875 C13.70070412 13.89105919 13.70070412 13.89105919 13.71018982 15.08705139 C13.71728103 16.73697669 13.71412605 18.38697365 13.70141602 20.03686523 C13.68756154 22.55522065 13.72160976 25.0698497 13.75976562 27.58789062 C13.76071702 29.19401132 13.75885691 30.80013665 13.75390625 32.40625 C13.76716446 33.15535141 13.78042267 33.90445282 13.79408264 34.67625427 C13.72329409 38.67206735 13.27321159 40.444177 10.74194336 43.59912109 C7.91169555 45.79435202 6.65769582 46.33296576 3.125 46.31640625 C2.3 46.34089844 1.475 46.36539063 0.625 46.390625 C-3.04063272 45.27375253 -4.97110284 42.82931181 -6.875 39.62890625 C-7.35453186 36.80013204 -7.55738332 34.59282802 -7.50390625 31.78125 C-7.50631821 31.04693253 -7.50873016 30.31261505 -7.51121521 29.55604553 C-7.51024059 28.01216196 -7.49693905 26.46824176 -7.47192383 24.92456055 C-7.43753695 22.56893765 -7.45129925 20.21705621 -7.47070312 17.86132812 C-7.46380559 16.35545288 -7.45413402 14.84958725 -7.44140625 13.34375 C-7.44636612 12.64467026 -7.45132599 11.94559052 -7.45643616 11.22532654 C-7.3227761 5.64675096 -5.82019304 1.27316723 0 0 Z " fill="#7FD959" transform="translate(170.875,233.37109375)"/>
<path d="M0 0 C1.02867188 -0.02191406 2.05734375 -0.04382813 3.1171875 -0.06640625 C7.20826491 0.78900084 8.53164868 2.31428102 11.125 5.5625 C11.61364365 8.35712583 11.80645243 10.52940839 11.75390625 13.3125 C11.75631821 14.04823242 11.75873016 14.78396484 11.76121521 15.54199219 C11.76023915 17.09185191 11.74690273 18.64174753 11.72192383 20.19140625 C11.68759583 22.55589913 11.70127685 24.91665414 11.72070312 27.28125 C11.71380421 28.79168248 11.70413139 30.30210537 11.69140625 31.8125 C11.69636612 32.5147168 11.70132599 33.21693359 11.70643616 33.94042969 C11.59214932 38.7337178 10.51436544 41.19174657 7.125 44.5625 C4.85251762 45.69874119 3.34197236 45.82696843 0.8125 45.9375 C0.05324219 45.98648438 -0.70601562 46.03546875 -1.48828125 46.0859375 C-5.17287606 45.27785942 -6.54164597 43.4755545 -8.875 40.5625 C-9.35045604 37.61901202 -9.53290419 35.27105564 -9.46875 32.33984375 C-9.46879028 31.55734756 -9.46883057 30.77485138 -9.46887207 29.96864319 C-9.46352788 28.32040337 -9.44599197 26.67216326 -9.41699219 25.02416992 C-9.37507075 22.50425263 -9.37593139 19.98700475 -9.3828125 17.46679688 C-9.37232122 15.86196064 -9.35938343 14.25713813 -9.34375 12.65234375 C-9.34354858 11.90121811 -9.34334717 11.15009247 -9.34313965 10.37620544 C-9.27127466 7.19524719 -9.06288298 4.90428352 -7.51708984 2.09228516 C-5.09853677 -0.16085989 -3.25351526 -0.00405675 0 0 Z " fill="#81D95B" transform="translate(9.875,233.4375)"/>
<path d="M0 0 C1.03125 -0.02191406 2.0625 -0.04382813 3.125 -0.06640625 C6 0.5625 6 0.5625 8.14648438 2.61743164 C10.42803984 6.24261652 10.57913162 9.15990123 10.53125 13.3125 C10.5350769 14.04823242 10.53890381 14.78396484 10.54284668 15.54199219 C10.54555903 17.09181086 10.53824519 18.64167584 10.52148438 20.19140625 C10.50006133 22.55573143 10.52130511 24.91701866 10.546875 27.28125 C10.5442316 28.79167333 10.53910636 30.30209479 10.53125 31.8125 C10.53934692 32.5147168 10.54744385 33.21693359 10.55578613 33.94042969 C10.46465412 38.74101979 9.39583938 41.18885565 6 44.5625 C3.72751762 45.69874119 2.21697236 45.82696843 -0.3125 45.9375 C-1.07175781 45.98648438 -1.83101562 46.03546875 -2.61328125 46.0859375 C-6.29721342 45.27800475 -7.66569437 43.47406344 -10 40.5625 C-10.48745933 37.62058391 -10.68079763 35.27175607 -10.62890625 32.33984375 C-10.63131821 31.55734756 -10.63373016 30.77485138 -10.63621521 29.96864319 C-10.63523889 28.32043368 -10.62189628 26.67219052 -10.59692383 25.02416992 C-10.56255336 22.50391237 -10.57628742 19.98715213 -10.59570312 17.46679688 C-10.58880572 15.86196428 -10.57913428 14.2571407 -10.56640625 12.65234375 C-10.57136612 11.90121811 -10.57632599 11.15009247 -10.58143616 10.37620544 C-10.5030694 6.89091542 -10.26405751 4.91399769 -8.14428711 2.09228516 C-5.32011915 0.07745692 -3.44757349 -0.00430947 0 0 Z " fill="#CB6EE6" transform="translate(255,233.4375)"/>
<path d="M0 0 C2.36293002 1.15632746 4.14983755 2.14983755 6 4 C6.13825913 6.69214372 6.21314259 9.3567975 6.23828125 12.05078125 C6.246353 12.86113327 6.25442474 13.67148529 6.26274109 14.50639343 C6.27659821 16.2255132 6.28731305 17.94466068 6.29516602 19.66381836 C6.31236182 22.29138557 6.35622923 24.91768913 6.40039062 27.54492188 C6.41051872 29.21353239 6.41903446 30.88215363 6.42578125 32.55078125 C6.44328934 33.33632889 6.46079742 34.12187653 6.47883606 34.93122864 C6.46460406 38.51766741 6.31403203 40.5789144 4.1394043 43.49487305 C0.16257615 46.2926758 -4.35445608 45.72012991 -9 45 C-11.65563802 43.1031157 -12.57242527 41.85514945 -14 39 C-14.1349498 36.57779073 -14.21254926 34.1855955 -14.23828125 31.76171875 C-14.246353 31.04393753 -14.25442474 30.32615631 -14.26274109 29.58662415 C-14.27657786 28.06599337 -14.28730185 26.54533159 -14.29516602 25.0246582 C-14.31235842 22.70658958 -14.35624181 20.38995531 -14.40039062 18.07226562 C-14.41051977 16.59376047 -14.41903519 15.11524321 -14.42578125 13.63671875 C-14.44328934 12.94696457 -14.46079742 12.25721039 -14.47883606 11.54655457 C-14.45739701 6.75501852 -13.38454362 4.36327947 -10 1 C-6.81345065 -0.59327468 -3.46828976 -0.39200976 0 0 Z " fill="#8E55FF" transform="translate(505,231)"/>
<path d="M0 0 C1.03125 -0.0103125 2.0625 -0.020625 3.125 -0.03125 C6.79504578 0.64691063 7.76054302 1.52929779 10 4.5 C10.39821432 7.26026389 10.5618616 9.614051 10.53125 12.37109375 C10.5350769 13.13043716 10.53890381 13.88978058 10.54284668 14.6721344 C10.54556343 16.27500741 10.53821863 17.87792493 10.52148438 19.48071289 C10.50009789 21.92630601 10.52127539 24.368952 10.546875 26.81445312 C10.5442311 28.37500645 10.53910482 29.93555795 10.53125 31.49609375 C10.53934692 32.22332138 10.54744385 32.95054901 10.55578613 33.69981384 C10.46642799 38.57172375 9.46711284 41.08185082 6 44.5 C2.79826746 46.10086627 -0.52577059 45.99917089 -4 45.5 C-6.8100346 43.70636089 -8.50940468 42.48119065 -10 39.5 C-10.13520707 36.92080852 -10.21261299 34.36985144 -10.23828125 31.7890625 C-10.246353 31.02451752 -10.25442474 30.25997253 -10.26274109 29.47225952 C-10.27657813 27.85327419 -10.28730199 26.23425974 -10.29516602 24.61523438 C-10.31238609 22.14136434 -10.35627351 19.66882854 -10.40039062 17.1953125 C-10.41051715 15.62240566 -10.41903338 14.04948746 -10.42578125 12.4765625 C-10.44328934 11.73789948 -10.46079742 10.99923645 -10.47883606 10.2381897 C-10.46418177 6.76207095 -10.26429548 4.85278992 -8.15307617 2.03466797 C-5.31637891 0.01272909 -3.45996727 -0.03459967 0 0 Z " fill="#CB6DE6" transform="translate(282,233.5)"/>
</svg>
